<svg xmlns="http://www.w3.org/2000/svg" width="256" height="256" viewBox="0 0 100 100"><rect width="100" height="100" rx="20" fill="#f0b057"></rect><path fill="#fff" d="M45.05 22.86L45.05 22.86Q45.77 23.49 46.26 24.39Q46.76 25.29 46.76 26.28L46.76 26.28Q46.76 27.54 46.26 28.53Q45.77 29.52 44.87 30.78L44.87 30.78L15.26 71.38L46.49 71.38Q46.85 71.82 47.12 72.59Q47.39 73.35 47.39 74.34L47.39 74.34Q47.39 75.88 46.63 76.73Q45.86 77.58 44.60 77.58L44.60 77.58L7.79 77.58Q7.07 76.95 6.57 76.05Q6.08 75.16 6.08 74.16L6.08 74.16Q6.08 72.91 6.57 71.91Q7.07 70.92 7.97 69.66L7.97 69.66L37.58 29.07L7.61 29.07Q7.34 28.62 7.02 27.86Q6.71 27.09 6.71 26.10L6.71 26.10Q6.71 24.57 7.47 23.72Q8.24 22.86 9.59 22.86L9.59 22.86L45.05 22.86ZM63.68 77.58L63.68 77.58Q61.97 77.58 60.84 76.50Q59.72 75.42 59.72 73.63L59.72 73.63L59.72 23.04Q60.17 22.86 61.11 22.64Q62.06 22.41 63.14 22.41L63.14 22.41Q67.10 22.41 67.10 25.74L67.10 25.74L67.10 71.28L92.93 71.28Q93.92 72.27 93.92 74.25L93.92 74.25Q93.92 75.78 93.11 76.68Q92.30 77.58 90.95 77.58L90.95 77.58L63.68 77.58Z"></path></svg>